<?xml version="1.0" standalone="no"?>
<!DOCTYPE svg PUBLIC "-//W3C//DTD SVG 20010904//EN"
 "http://www.w3.org/TR/2001/REC-SVG-20010904/DTD/svg10.dtd">
<svg version="1.0" xmlns="http://www.w3.org/2000/svg"
 width="512.000000pt" height="512.000000pt" viewBox="0 0 512.000000 512.000000"
 preserveAspectRatio="xMidYMid meet">
<metadata>
Created by potrace 1.16, written by Peter Selinger 2001-2019
</metadata>
<g transform="translate(0.000000,512.000000) scale(0.100000,-0.100000)"
fill="#000000" stroke="none">
<path d="M2775 5039 c-321 -21 -651 -151 -887 -352 l-66 -56 -177 -10 c-98 -6
-193 -11 -212 -11 -48 0 -83 -37 -83 -87 0 -34 9 -49 90 -136 50 -53 90 -99
90 -102 0 -3 -23 -51 -51 -106 -66 -133 -101 -229 -135 -375 -27 -112 -28
-132 -28 -344 0 -212 1 -232 28 -344 97 -413 327 -748 674 -979 285 -191 629
-280 988 -256 698 47 1283 552 1434 1238 33 148 45 323 31 469 -6 70 -20 165
-30 212 l-19 85 282 285 c339 342 341 345 341 510 0 95 -3 111 -28 162 -59
119 -184 199 -317 200 -158 1 -191 -19 -446 -276 l-210 -212 -80 74 c-89 84
-249 194 -364 252 -162 81 -397 147 -560 156 -47 3 -101 6 -120 7 -19 2 -84 0
-145 -4z m375 -184 c190 -37 374 -113 536 -221 87 -57 234 -188 234 -208 0 -6
-24 -36 -54 -65 l-55 -54 -76 71 c-166 156 -367 258 -605 309 -112 24 -371 24
-479 0 -121 -27 -210 -58 -317 -112 l-102 -51 1 33 c1 48 -35 83 -87 83 l-41
1 40 25 c162 102 368 175 575 204 92 13 330 4 430 -15z m1595 14 c23 -7 57
-28 81 -53 66 -65 79 -149 37 -230 -9 -17 -364 -382 -791 -813 -581 -586 -784
-786 -813 -797 -52 -21 -115 -20 -164 3 -26 12 -155 135 -381 362 -328 331
-342 346 -353 395 -38 162 121 294 276 229 23 -10 123 -101 273 -250 215 -214
239 -235 270 -235 33 -1 74 38 720 688 703 707 703 708 780 711 14 0 43 -4 65
-10z m-1595 -357 c135 -36 243 -85 350 -159 82 -58 180 -143 180 -157 0 -6
-114 -125 -253 -264 l-252 -252 -204 204 c-248 248 -269 261 -421 261 -84 -1
-102 -4 -154 -29 -76 -37 -140 -101 -174 -174 -24 -50 -27 -69 -27 -162 0
-162 -3 -158 418 -578 387 -386 401 -397 529 -408 79 -8 174 15 238 56 26 17
169 153 318 304 l272 274 0 -43 c0 -23 -7 -79 -15 -122 -70 -368 -325 -675
-678 -814 -109 -43 -199 -60 -347 -66 -123 -4 -161 -2 -248 16 -641 133 -1022
787 -816 1403 14 43 29 78 33 78 4 0 33 -27 65 -60 51 -52 63 -60 95 -60 71 0
78 16 114 290 l33 243 34 29 c96 81 278 164 432 198 123 26 362 22 478 -8z
m-1094 -79 c-3 -21 -15 -110 -26 -198 -30 -232 -23 -217 -74 -162 -47 52 -82
60 -124 31 -47 -33 -134 -244 -168 -409 -24 -120 -25 -346 -1 -468 89 -449
416 -817 848 -955 142 -46 218 -57 384 -57 336 0 621 115 861 347 257 248 389
568 383 926 l-2 123 69 70 c46 46 71 65 75 56 17 -29 31 -228 26 -342 -13
-270 -90 -502 -239 -727 -74 -112 -260 -301 -368 -375 -159 -108 -357 -190
-555 -229 -133 -27 -395 -25 -532 4 -504 108 -906 464 -1068 947 -128 380 -80
825 126 1167 67 111 66 132 -8 209 -32 34 -50 60 -42 60 58 6 262 16 342 17
l99 2 -6 -37z"/>
<path d="M1540 2024 c-88 -25 -215 -90 -529 -273 l-295 -171 -33 60 c-39 69
-80 103 -142 120 -65 17 -102 6 -244 -72 -196 -107 -227 -142 -227 -256 0 -58
1 -59 348 -672 372 -658 376 -663 463 -678 72 -13 121 3 266 86 174 100 198
128 198 235 0 65 -4 78 -38 136 -43 72 -43 71 33 114 l45 25 515 -139 c283
-77 550 -144 593 -150 93 -13 192 -2 288 34 81 29 1561 937 1608 987 93 96
114 265 49 393 -29 57 -93 114 -156 138 -78 29 -234 23 -337 -13 -100 -36
-133 -53 -608 -330 -236 -138 -438 -253 -449 -256 -18 -4 -20 -2 -13 14 14 32
18 165 6 203 -17 60 -68 126 -124 164 -42 29 -81 43 -197 71 -166 39 -299 81
-555 174 -177 64 -182 65 -295 68 -82 2 -131 -1 -170 -12z m445 -227 c258 -92
374 -128 533 -166 67 -16 134 -37 148 -46 36 -23 68 -98 60 -141 -9 -45 -49
-90 -93 -105 -53 -17 -112 -7 -373 66 -129 36 -245 65 -258 65 -33 0 -72 -43
-72 -78 0 -60 16 -68 295 -142 143 -39 295 -77 339 -85 101 -19 246 -19 321 0
76 20 119 44 610 330 226 131 443 252 483 267 154 60 268 44 312 -43 27 -53
24 -135 -7 -176 -18 -25 -1391 -879 -1513 -942 -75 -39 -149 -54 -229 -49 -40
3 -277 62 -612 152 -300 80 -554 146 -564 146 -10 0 -53 -20 -96 -45 -43 -25
-82 -45 -86 -45 -8 0 -375 640 -381 664 -3 13 639 385 717 416 147 57 195 53
466 -43z m-1138 -787 c216 -380 331 -593 330 -609 -2 -19 -25 -37 -126 -94
-97 -56 -127 -68 -140 -60 -26 16 -682 1183 -676 1202 7 21 234 151 260 148
15 -1 101 -146 352 -587z"/>
<path d="M389 1431 c-37 -37 -38 -79 -3 -120 21 -25 34 -31 64 -31 58 0 95 35
95 90 0 84 -95 121 -156 61z"/>
</g>
</svg>
