<?xml version="1.0" standalone="no"?>
<!DOCTYPE svg PUBLIC "-//W3C//DTD SVG 20010904//EN"
 "http://www.w3.org/TR/2001/REC-SVG-20010904/DTD/svg10.dtd">
<svg version="1.0" xmlns="http://www.w3.org/2000/svg"
 width="1920.000000pt" height="1920.000000pt" viewBox="0 0 1920.000000 1920.000000"
 preserveAspectRatio="xMidYMid meet">
<metadata>
Created by potrace 1.16, written by Peter Selinger 2001-2019
</metadata>
<g transform="translate(0.000000,1920.000000) scale(0.100000,-0.100000)"
fill="#000000" stroke="none">
<path d="M9063 14427 c-463 -462 -493 -494 -493 -527 0 -49 20 -82 60 -102 30
-15 64 -18 233 -18 l197 0 0 -906 0 -906 34 -34 c49 -49 114 -45 158 10 16 20
18 88 18 1006 0 918 -2 986 -18 1006 -30 38 -56 44 -184 44 l-123 0 328 327
327 328 327 -328 328 -327 -125 0 c-129 0 -153 -6 -187 -50 -10 -11 -12 -241
-12 -1000 -1 -918 1 -986 17 -1006 44 -55 109 -59 158 -10 l34 34 0 906 0 906
198 0 c168 0 202 3 232 18 40 20 60 53 60 102 0 33 -30 65 -493 527 l-492 493
-45 0 -45 0 -492 -493z"/>
<path d="M7175 13636 c-41 -19 -971 -954 -985 -990 -14 -38 2 -89 37 -116 24
-19 40 -20 234 -20 l209 0 2 -3476 3 -3476 33 -29 c45 -40 99 -40 144 0 l33
29 3 3524 c1 1938 0 3537 -3 3554 -3 18 -17 44 -32 58 -25 25 -29 26 -153 26
-70 0 -130 3 -133 6 -4 4 140 153 319 333 l325 325 324 -324 c179 -179 325
-328 325 -332 0 -5 -57 -8 -127 -8 -137 0 -156 -7 -182 -57 -8 -15 -11 -221
-11 -703 l0 -682 34 -34 c55 -55 134 -43 168 26 17 32 18 84 18 638 l0 602
209 0 209 0 31 29 c26 25 31 36 31 77 l0 49 -477 478 c-422 423 -515 508 -550
507 -4 -1 -21 -7 -38 -14z"/>
<path d="M11945 13636 c-16 -8 -245 -229 -507 -493 l-478 -478 0 -49 c0 -41 5
-52 31 -77 l31 -29 209 0 209 0 0 -602 c0 -554 1 -606 18 -638 34 -69 113 -81
168 -26 l34 34 0 682 c0 482 -3 688 -11 703 -26 50 -45 57 -181 57 -71 0 -128
3 -128 8 0 4 146 153 325 332 l324 324 325 -325 c179 -180 323 -329 319 -333
-3 -3 -63 -6 -133 -6 -124 0 -128 -1 -153 -26 -15 -14 -29 -40 -32 -58 -3 -17
-4 -1616 -3 -3554 l3 -3524 33 -29 c45 -40 99 -40 144 0 l33 29 3 3476 2 3476
209 0 c194 0 210 1 234 20 38 30 52 80 33 122 -18 42 -951 973 -989 988 -35
12 -35 12 -72 -4z"/>
<path d="M5375 11626 c-16 -8 -245 -229 -507 -493 l-478 -478 0 -45 c0 -48 19
-79 57 -99 14 -7 94 -11 222 -11 l201 0 2 -1342 c3 -1274 4 -1344 21 -1369 40
-59 125 -63 171 -8 l26 31 0 1408 c0 871 -4 1418 -10 1434 -18 48 -53 60 -187
66 l-123 5 325 325 325 325 325 -325 325 -325 -130 -5 -130 -5 -32 -33 -33
-32 -3 -2018 c-2 -1500 1 -2024 9 -2045 29 -71 114 -89 171 -38 l33 29 3 1961
2 1961 203 0 c222 0 239 4 270 58 42 72 50 62 -451 565 -252 252 -471 469
-489 483 -41 31 -80 38 -118 20z"/>
<path d="M13735 11625 c-17 -8 -242 -228 -502 -488 -517 -519 -508 -507 -466
-579 31 -54 48 -58 270 -58 l203 0 2 -1961 3 -1961 33 -29 c57 -51 142 -33
171 38 8 21 11 545 9 2045 l-3 2018 -33 32 -32 33 -130 5 -130 5 325 325 325
325 325 -325 325 -325 -123 -5 c-134 -6 -169 -18 -187 -66 -6 -16 -10 -563
-10 -1434 l0 -1408 26 -31 c46 -55 131 -51 171 8 17 25 18 95 21 1369 l2 1342
201 0 c128 0 208 4 222 11 38 20 57 51 57 99 l0 45 -477 478 c-272 272 -492
485 -510 493 -40 17 -50 17 -88 -1z"/>
<path d="M9172 11473 c-18 -9 -38 -25 -44 -36 -5 -11 -25 -123 -43 -249 -19
-126 -36 -232 -38 -235 -3 -2 -47 -19 -99 -37 -51 -18 -134 -52 -184 -75 l-92
-43 -183 137 c-100 76 -197 142 -214 148 -25 7 -40 6 -67 -7 -19 -9 -161 -144
-316 -300 l-282 -282 0 -46 c0 -43 8 -56 143 -238 l143 -192 -42 -86 c-22 -48
-56 -130 -74 -182 -18 -52 -36 -98 -39 -102 -3 -4 -105 -21 -226 -38 -225 -32
-270 -44 -295 -83 -21 -31 -28 -782 -8 -841 22 -65 40 -72 278 -106 118 -17
224 -32 235 -35 15 -3 27 -26 49 -89 16 -47 51 -131 77 -186 l48 -101 -133
-177 c-154 -206 -156 -209 -156 -259 0 -36 12 -50 298 -335 295 -296 298 -298
339 -298 38 0 59 12 237 145 l195 146 78 -39 c43 -22 125 -57 183 -78 58 -21
107 -39 109 -40 2 -2 16 -96 32 -211 33 -245 41 -275 76 -302 25 -20 37 -21
444 -21 l419 0 30 28 c31 27 32 30 66 267 19 131 36 240 37 240 1 1 38 14 82
29 44 15 127 50 184 77 57 27 108 46 115 42 6 -4 91 -67 189 -140 98 -73 189
-136 202 -139 55 -14 77 5 373 299 l292 292 0 46 c0 43 -8 56 -140 232 -77
103 -140 191 -140 196 0 4 20 51 43 102 24 52 57 132 73 179 16 47 30 87 31
89 1 2 106 18 233 36 152 22 239 39 256 50 52 34 54 52 54 470 0 422 -2 440
-57 469 -16 8 -130 29 -254 46 -123 17 -227 35 -230 38 -3 4 -21 50 -38 102
-18 52 -52 133 -76 181 l-43 85 144 193 c164 218 169 234 115 307 -16 21 -148
157 -293 302 l-265 262 -48 0 c-46 0 -55 -5 -235 -140 -103 -77 -191 -140
-196 -140 -4 0 -49 20 -99 44 -49 24 -131 58 -182 76 -80 28 -93 36 -97 59 -3
14 -17 112 -31 216 -31 229 -38 251 -79 276 -29 18 -54 19 -431 19 -349 0
-404 -3 -433 -17z m744 -426 c24 -169 36 -224 51 -245 16 -21 51 -37 157 -73
75 -25 191 -74 259 -108 81 -41 134 -61 157 -61 29 0 64 22 215 135 98 74 182
135 185 135 3 0 94 -89 204 -199 l198 -198 -131 -175 c-72 -96 -135 -187 -141
-202 -13 -35 -5 -67 36 -136 59 -102 136 -293 158 -397 7 -29 56 -83 76 -83 4
0 101 -13 215 -30 114 -16 211 -30 216 -30 5 0 8 -122 7 -287 l-3 -287 -221
-31 c-144 -20 -229 -36 -246 -47 -28 -18 -32 -28 -79 -178 -18 -58 -62 -161
-97 -230 -43 -85 -64 -137 -64 -162 -1 -33 16 -60 136 -220 l137 -182 -198
-198 c-109 -109 -201 -198 -206 -198 -4 0 -87 59 -184 131 -204 153 -217 157
-303 109 -106 -59 -206 -102 -335 -145 -94 -31 -134 -49 -147 -66 -13 -17 -27
-89 -50 -249 l-33 -225 -285 0 -284 0 -32 223 c-21 144 -38 231 -49 248 -18
29 -20 29 -175 79 -63 20 -171 65 -241 101 -69 35 -136 64 -148 64 -33 0 -51
-11 -232 -146 -91 -68 -170 -124 -175 -124 -5 0 -98 89 -206 198 l-197 197
134 179 c145 193 159 222 130 278 -84 161 -115 232 -156 353 -35 106 -53 145
-72 159 -19 14 -77 27 -219 47 -106 16 -208 31 -225 34 l-33 6 0 283 0 282
158 23 c281 40 293 43 323 68 17 14 33 42 39 66 29 111 68 214 132 343 55 114
68 147 62 169 -4 16 -67 109 -141 208 l-135 180 198 199 c110 109 204 196 211
194 6 -3 74 -52 151 -109 249 -187 234 -182 374 -108 107 57 244 112 340 136
111 28 114 34 149 286 17 118 32 220 34 227 4 10 66 12 287 10 l283 -3 31
-218z"/>
<path d="M9464 9850 c-151 -27 -289 -103 -409 -224 -76 -76 -99 -107 -138
-186 -62 -126 -81 -207 -81 -350 0 -89 5 -132 22 -193 64 -226 203 -394 407
-492 121 -58 199 -75 338 -75 181 0 330 50 468 156 183 140 299 376 299 607 0
75 -28 210 -60 288 -87 214 -294 397 -515 455 -72 19 -260 27 -331 14z m270
-225 c94 -25 166 -66 242 -138 229 -216 233 -560 10 -783 -219 -218 -552 -217
-772 2 -140 138 -193 323 -149 512 46 196 206 359 400 408 70 17 200 17 269
-1z"/>
<path d="M7730 6834 c-287 -76 -475 -371 -416 -654 31 -149 126 -293 247 -374
220 -149 522 -116 714 78 116 117 165 237 165 404 0 260 -173 483 -425 547
-74 19 -212 18 -285 -1z m228 -208 c192 -51 310 -248 258 -432 -48 -168 -200
-275 -371 -262 -305 25 -434 405 -207 610 95 86 205 114 320 84z"/>
<path d="M11180 6834 c-351 -92 -524 -489 -358 -818 60 -118 192 -227 334
-276 150 -52 349 -25 483 66 166 111 274 331 256 518 -24 250 -192 450 -430
511 -74 19 -212 18 -285 -1z m285 -228 c229 -105 285 -396 110 -571 -85 -86
-217 -123 -334 -95 -162 39 -284 209 -267 373 25 240 278 391 491 293z"/>
<path d="M9446 6300 c-109 -18 -210 -50 -321 -105 -279 -136 -480 -383 -562
-693 -23 -86 -26 -116 -26 -262 0 -146 3 -176 26 -262 83 -313 300 -573 590
-708 341 -158 742 -123 1054 92 209 144 363 365 430 616 23 86 26 116 26 262
0 146 -3 176 -26 262 -82 309 -282 556 -562 694 -150 74 -272 104 -440 109
-71 2 -157 0 -189 -5z m309 -221 c164 -30 348 -131 462 -252 154 -165 233
-365 233 -590 0 -468 -381 -847 -850 -847 -334 0 -640 198 -780 505 -64 142
-88 358 -55 513 70 333 328 594 660 667 74 17 251 19 330 4z"/>
<path d="M9479 5696 c-348 -97 -465 -532 -210 -787 185 -185 477 -185 662 0
256 257 138 693 -215 787 -63 17 -175 17 -237 0z m215 -220 c49 -20 116 -85
137 -131 23 -49 25 -149 4 -198 -38 -92 -136 -157 -235 -157 -99 0 -197 65
-235 157 -21 49 -19 149 4 198 20 45 87 110 135 131 41 17 148 18 190 0z"/>
</g>
</svg>
