<?xml version="1.0" standalone="no"?>
<!DOCTYPE svg PUBLIC "-//W3C//DTD SVG 20010904//EN"
 "http://www.w3.org/TR/2001/REC-SVG-20010904/DTD/svg10.dtd">
<svg version="1.0" xmlns="http://www.w3.org/2000/svg"
 width="512.000000pt" height="512.000000pt" viewBox="0 0 512.000000 512.000000"
 preserveAspectRatio="xMidYMid meet">
<metadata>
Created by potrace 1.16, written by Peter Selinger 2001-2019
</metadata>
<g transform="translate(0.000000,512.000000) scale(0.100000,-0.100000)"
fill="#000000" stroke="none">
<path d="M2245 5095 c-414 -55 -768 -186 -1105 -411 -231 -154 -481 -393 -635
-607 -25 -34 -48 -66 -53 -72 -84 -110 -250 -442 -310 -620 -102 -304 -137
-542 -129 -887 5 -234 15 -323 58 -508 30 -130 38 -149 69 -165 49 -25 98 -19
131 16 36 38 36 54 4 194 -117 518 -51 1097 176 1549 82 161 178 317 248 402
14 17 40 48 56 70 60 78 277 289 364 354 19 14 39 30 46 35 6 6 18 15 27 20 9
6 43 28 75 50 80 55 100 66 243 138 232 116 431 181 685 224 171 28 584 26
755 -5 334 -60 620 -172 895 -352 71 -46 176 -123 206 -150 8 -8 37 -33 63
-54 26 -22 43 -42 39 -46 -4 -4 -72 -20 -151 -35 -129 -25 -145 -31 -167 -57
-41 -49 -29 -134 22 -157 39 -18 75 -14 343 40 238 48 257 53 283 80 l27 29 0
285 c0 187 -4 292 -11 308 -23 50 -119 65 -156 25 -36 -40 -38 -51 -43 -200
l-5 -148 -100 82 c-124 100 -178 140 -280 205 -299 189 -661 319 -1025 367
-136 17 -514 18 -645 1z"/>
<path d="M2375 4054 c-193 -28 -365 -83 -520 -164 -56 -30 -155 -93 -182 -115
-6 -5 -26 -21 -45 -34 -43 -32 -203 -192 -253 -254 -22 -27 -50 -67 -64 -90
-13 -23 -28 -44 -32 -47 -4 -3 -13 -17 -19 -30 -5 -14 -21 -44 -34 -67 -50
-88 -107 -244 -136 -370 -21 -91 -31 -194 -31 -331 0 -279 62 -503 211 -767
68 -121 237 -313 355 -404 191 -147 400 -245 616 -290 29 -6 65 -14 79 -17 65
-15 368 -15 465 0 170 26 379 97 508 173 27 15 56 33 65 38 112 66 295 232
400 363 115 145 218 367 269 582 34 146 43 396 19 560 -26 173 -114 420 -190
533 -14 21 -26 40 -26 43 0 3 -16 26 -35 52 -19 26 -45 61 -57 77 -44 59 -184
197 -253 250 -194 148 -376 232 -630 292 -59 14 -416 26 -480 17z m410 -210
c265 -46 497 -166 691 -359 256 -254 384 -563 384 -926 0 -151 -16 -264 -56
-391 -26 -82 -88 -228 -97 -228 -3 0 -26 29 -52 65 -160 225 -384 403 -631
500 l-95 38 59 61 c112 117 162 243 162 407 0 356 -301 626 -658 588 -321 -34
-562 -338 -521 -658 16 -129 71 -247 155 -333 l43 -44 -90 -28 c-235 -73 -487
-244 -638 -433 -36 -45 -69 -78 -73 -75 -15 15 -78 222 -93 306 -19 114 -20
337 0 450 31 177 104 357 210 516 106 158 312 337 498 432 80 40 246 95 343
112 109 20 347 20 459 0z m-152 -449 c77 -10 137 -43 204 -111 82 -83 105
-135 111 -250 5 -108 -10 -165 -66 -247 -63 -92 -134 -138 -253 -163 -60 -12
-78 -12 -136 0 -93 20 -132 38 -187 87 -95 85 -136 173 -138 293 -3 173 106
327 267 379 51 17 108 25 135 21 8 -1 36 -5 63 -9z m151 -1024 c260 -66 457
-185 634 -384 35 -40 152 -214 152 -227 0 -27 -134 -160 -240 -238 -234 -171
-485 -254 -770 -253 -249 0 -451 56 -684 190 -104 60 -266 208 -348 320 l-40
53 46 67 c92 133 230 259 381 346 259 151 584 198 869 126z"/>
<path d="M4865 3348 c-61 -33 -67 -79 -31 -219 127 -492 79 -1049 -131 -1519
-57 -130 -204 -388 -232 -410 -4 -3 -18 -21 -31 -40 -124 -177 -358 -402 -565
-540 -394 -265 -814 -395 -1290 -399 -338 -3 -605 47 -910 169 -92 36 -266
122 -306 151 -15 10 -30 19 -34 19 -23 0 -375 273 -375 291 0 3 68 18 151 34
173 34 199 49 199 116 0 74 -34 109 -104 109 -42 0 -514 -95 -548 -110 -48
-22 -53 -46 -56 -305 -2 -132 0 -260 3 -284 9 -59 50 -101 99 -101 42 0 82 17
93 39 4 9 10 90 13 180 l5 163 61 -53 c33 -30 75 -65 94 -79 18 -14 54 -41 79
-60 53 -41 132 -93 211 -140 60 -36 264 -140 274 -140 5 0 31 -11 121 -51 22
-10 140 -48 225 -73 328 -95 779 -113 1164 -46 135 24 403 107 536 167 145 65
370 189 426 236 16 13 36 28 45 33 102 57 369 312 499 475 140 175 189 252
294 461 185 370 266 718 266 1147 0 235 -27 449 -82 651 -26 98 -33 109 -73
126 -41 17 -63 17 -90 2z"/>
</g>
</svg>
