<?xml version="1.0" standalone="no"?>
<!DOCTYPE svg PUBLIC "-//W3C//DTD SVG 20010904//EN"
 "http://www.w3.org/TR/2001/REC-SVG-20010904/DTD/svg10.dtd">
<svg version="1.0" xmlns="http://www.w3.org/2000/svg"
 width="300.000000pt" height="280.000000pt" viewBox="0 0 300.000000 280.000000"
 preserveAspectRatio="xMidYMid meet">
<metadata>
Created by potrace 1.10, written by Peter Selinger 2001-2011
</metadata>
<g transform="translate(0.000000,280.000000) scale(0.100000,-0.100000)"
fill="#000000" stroke="none">
<path d="M1245 2776 c-577 -90 -1049 -502 -1199 -1046 -28 -104 -46 -287 -29
-304 10 -10 11 -56 1 -56 -12 0 -10 -83 6 -190 29 -190 126 -415 251 -582 152
-202 391 -384 628 -479 186 -75 529 -136 552 -99 8 13 115 13 115 0 0 -14 67
-12 185 5 467 66 899 373 1100 780 104 211 135 347 135 593 0 238 -32 386
-125 577 -65 135 -139 238 -252 356 -238 246 -527 393 -883 449 -88 13 -387
11 -485 -4z m426 -47 c172 -17 353 -70 511 -150 508 -255 804 -767 750 -1297
-32 -319 -168 -594 -404 -817 -243 -231 -547 -365 -895 -397 -673 -61 -1304
331 -1507 934 -46 139 -60 232 -60 398 0 166 14 259 60 398 114 339 360 615
700 785 256 128 542 177 845 146z"/>
<path d="M1549 2633 c0 -21 -4 -77 -7 -125 l-7 -88 51 0 c61 0 77 14 94 82 24
95 -5 152 -82 163 l-48 6 -1 -38z m89 -25 c14 -14 16 -87 2 -122 -7 -20 -16
-26 -41 -26 -28 0 -31 3 -25 23 3 12 6 48 6 80 0 53 2 57 23 57 13 0 28 -5 35
-12z"/>
<path d="M1307 2642 c-21 -23 -21 -41 -1 -70 14 -20 14 -24 0 -44 -23 -33 -20
-81 7 -106 29 -27 51 -28 75 -1 17 17 20 18 25 5 4 -9 10 -16 16 -16 16 0 19
39 5 51 -10 8 -13 22 -9 41 5 21 3 28 -8 28 -9 0 -17 -6 -20 -12 -3 -9 -9 -7
-20 7 -13 17 -13 22 -1 39 19 28 18 60 -4 79 -24 22 -45 21 -65 -1z m51 -36
c2 -10 -1 -23 -6 -28 -12 -12 -36 27 -27 43 10 15 29 5 33 -15z m5 -115 c15
-26 15 -30 1 -42 -22 -18 -49 11 -40 45 8 34 18 33 39 -3z"/>
<path d="M1745 2638 c-5 -13 -35 -209 -35 -228 0 -20 30 -9 34 13 9 39 29 171
30 196 1 26 -21 41 -29 19z"/>
<path d="M1822 2511 c-34 -60 -62 -111 -62 -115 0 -17 38 -3 48 18 10 22 14
24 44 15 18 -5 33 -9 34 -9 1 0 -1 -12 -4 -26 -4 -24 9 -43 31 -44 4 0 7 58 7
129 0 108 -3 130 -16 135 -9 3 -17 6 -18 6 -1 0 -30 -49 -64 -109z m68 -7 c0
-42 -1 -45 -22 -38 -13 3 -24 8 -26 9 -4 3 39 75 44 75 2 0 4 -21 4 -46z"/>
<path d="M1035 2569 c-30 -57 8 -175 67 -208 25 -14 29 -14 55 5 36 27 46 94
14 94 -14 0 -21 -8 -23 -27 -2 -22 -8 -28 -28 -28 -33 0 -62 54 -58 110 3 33
7 41 26 43 13 2 24 -3 28 -12 5 -12 10 -13 26 -5 20 11 20 11 -3 35 -34 36
-84 33 -104 -7z"/>
<path d="M932 2551 c-10 -6 -3 -33 33 -117 26 -60 48 -111 50 -113 2 -2 11 -1
19 2 11 5 4 28 -34 117 -26 61 -50 113 -52 115 -2 2 -9 0 -16 -4z"/>
<path d="M2043 2530 c-68 -41 -101 -173 -54 -212 26 -21 84 -24 98 -5 5 6 16
29 26 49 l17 38 -30 15 c-36 19 -36 19 -44 -1 -4 -10 1 -22 11 -29 15 -11 15
-15 4 -29 -27 -32 -71 -13 -71 31 0 32 36 100 59 113 11 5 27 7 35 4 15 -6 18
-11 20 -44 1 -8 9 -16 19 -18 13 -3 17 3 17 30 0 39 -7 51 -37 67 -29 15 -33
14 -70 -9z"/>
<path d="M852 2512 c-19 -6 -15 -17 27 -87 22 -36 37 -65 34 -65 -3 0 -29 19
-57 43 -78 65 -81 67 -95 58 -10 -7 0 -33 45 -115 52 -96 70 -117 86 -100 3 3
-12 34 -33 69 -21 36 -39 67 -39 70 0 3 30 -18 67 -48 58 -48 93 -62 93 -38 0
22 -117 217 -128 213z"/>
<path d="M2168 2367 c-53 -83 -63 -104 -51 -110 8 -5 16 -7 17 -5 2 1 20 31
41 66 21 34 40 60 43 58 4 -5 -12 -82 -29 -138 -5 -19 -3 -30 7 -39 8 -6 16
-10 18 -8 39 50 134 203 130 210 -11 18 -22 8 -64 -56 -24 -36 -44 -64 -46
-63 -1 2 7 41 18 87 16 68 17 85 6 92 -7 5 -15 8 -18 8 -3 0 -35 -46 -72 -102z"/>
<path d="M672 2408 c-8 -10 5 -33 55 -98 82 -108 85 -111 101 -101 11 6 -3 30
-54 97 -91 121 -88 118 -102 102z"/>
<path d="M2384 2316 c-39 -17 -101 -90 -110 -128 -8 -40 22 -82 62 -86 57 -5
139 72 151 141 4 29 1 40 -20 61 -29 29 -39 31 -83 12z m64 -67 c4 -33 -63
-109 -95 -109 -52 0 -52 53 1 108 24 25 38 32 61 30 24 -2 31 -8 33 -29z"/>
<path d="M553 2309 c-11 -11 15 -49 119 -167 l29 -34 45 37 c41 34 44 39 30
53 -14 15 -18 13 -46 -13 -16 -16 -31 -27 -33 -24 -14 18 -130 159 -131 159
-1 0 -7 -5 -13 -11z"/>
<path d="M1360 2284 c-235 -42 -425 -138 -567 -287 -85 -90 -125 -147 -168
-240 -63 -138 -70 -175 -69 -362 0 -159 2 -175 28 -250 104 -304 352 -526 681
-611 99 -26 371 -26 470 0 181 47 355 146 472 269 118 125 182 236 222 392 29
110 29 300 0 410 -84 320 -334 563 -678 656 -56 15 -114 22 -221 24 -80 2
-156 2 -170 -1z m375 -62 c277 -75 487 -244 600 -485 54 -116 75 -209 75 -335
0 -123 -21 -223 -70 -329 -47 -101 -85 -157 -166 -243 -111 -118 -280 -213
-454 -255 -77 -19 -283 -27 -365 -14 -188 30 -360 112 -497 238 -264 242 -343
623 -193 938 44 94 83 149 161 233 132 140 338 243 549 274 68 10 291 -4 360
-22z"/>
<path d="M1385 1777 c-100 -34 -202 -119 -242 -201 -19 -40 -33 -32 -33 19 0
71 -77 133 -148 120 -20 -4 -45 -11 -55 -17 -28 -15 -57 -69 -57 -108 0 -48
-15 -60 -72 -60 -91 0 -138 -44 -138 -130 0 -43 5 -55 33 -85 27 -30 41 -37
87 -42 30 -3 58 -11 62 -17 4 -6 8 -30 8 -52 0 -66 62 -124 132 -124 67 0 128
70 128 147 0 57 22 57 51 1 35 -68 122 -152 192 -184 56 -26 72 -29 167 -29
96 0 110 3 164 30 72 35 155 115 185 179 15 31 29 46 42 46 16 0 19 -7 19 -40
0 -52 21 -102 51 -122 90 -59 209 -5 209 95 0 23 4 47 8 53 4 6 33 14 64 18
48 6 62 13 88 42 25 29 30 43 30 87 0 43 -5 59 -28 87 -26 30 -34 34 -93 38
-35 2 -70 9 -76 14 -7 6 -13 27 -13 48 0 52 -36 102 -86 119 -35 12 -46 12
-84 0 -53 -17 -82 -55 -90 -116 -3 -25 -10 -48 -16 -50 -6 -2 -19 15 -29 38
-27 59 -118 147 -184 177 -68 31 -210 40 -276 19z m282 -42 c78 -39 138 -97
173 -171 12 -24 28 -44 36 -44 14 0 17 10 29 84 4 23 18 50 35 68 23 23 37 28
77 28 78 0 111 -33 122 -124 l6 -51 65 -5 c101 -8 140 -40 140 -117 0 -33 -7
-50 -29 -75 -26 -29 -37 -34 -93 -38 l-63 -5 -5 -63 c-4 -56 -9 -67 -38 -93
-26 -24 -41 -29 -82 -29 -41 0 -54 5 -79 29 -24 23 -30 40 -36 93 -7 61 -8 64
-33 63 -22 0 -33 -10 -59 -59 -18 -33 -45 -73 -60 -88 -108 -113 -289 -147
-434 -82 -68 31 -151 112 -184 179 -18 38 -28 49 -48 49 -24 2 -26 -2 -32 -63
-6 -54 -12 -69 -37 -93 -24 -23 -39 -28 -79 -28 -40 0 -55 5 -81 29 -29 26
-34 37 -38 93 -6 70 2 64 -93 67 -19 1 -41 13 -63 35 -28 28 -34 41 -34 78 0
78 38 110 140 118 l65 5 6 51 c11 91 44 124 122 124 40 0 54 -5 77 -28 17 -18
31 -45 35 -68 12 -73 15 -84 28 -84 7 0 19 16 26 35 18 50 116 152 174 181
109 56 230 55 344 -1z"/>
<path d="M1382 1704 c-62 -23 -155 -112 -182 -176 -26 -62 -33 -68 -81 -68
-53 0 -66 16 -73 90 -8 89 -49 123 -103 85 -16 -11 -22 -29 -27 -87 -8 -82 3
-74 -119 -84 -53 -5 -70 -10 -82 -27 -20 -29 -19 -49 5 -75 18 -19 32 -22 95
-22 l75 0 0 -69 c0 -78 23 -121 66 -121 43 0 64 33 64 101 0 47 4 65 18 75 23
18 142 19 142 2 0 -32 51 -117 95 -160 68 -67 136 -91 240 -86 65 3 91 10 134
33 67 37 125 102 150 169 l19 51 58 3 c33 2 68 -2 81 -9 20 -11 23 -20 23 -76
0 -71 20 -103 64 -103 43 0 66 43 66 121 l0 69 75 0 c63 0 77 3 95 22 24 26
25 46 5 75 -12 17 -29 22 -82 27 -122 10 -111 2 -119 84 -5 58 -11 76 -27 87
-54 38 -95 4 -103 -85 -7 -73 -20 -90 -70 -90 -52 0 -62 8 -94 75 -32 68 -84
121 -152 156 -56 30 -192 36 -256 13z m216 -55 c24 -10 41 -23 37 -29 -3 -5 0
-7 8 -4 9 3 30 -13 55 -41 42 -48 70 -105 51 -105 -6 0 -3 -7 5 -16 9 -8 16
-24 16 -35 0 -23 16 -25 24 -2 5 12 9 14 18 5 16 -16 131 -15 146 0 10 10 15
10 21 -1 8 -13 12 2 27 127 4 28 10 52 14 52 5 0 11 -48 15 -107 7 -120 12
-157 14 -100 1 36 15 50 24 25 3 -10 7 -10 18 -1 10 8 20 9 29 3 8 -6 41 -10
73 -10 41 0 56 -3 51 -11 -4 -8 -30 -10 -76 -7 -37 3 -71 1 -74 -4 -3 -5 -12
-7 -20 -4 -10 4 -14 -3 -14 -28 0 -62 -13 -156 -21 -156 -5 0 -9 37 -10 83 -1
45 -4 109 -8 142 l-6 60 -7 -54 c-8 -59 -15 -72 -27 -53 -12 19 -179 22 -186
3 -3 -7 -12 -10 -20 -7 -11 4 -15 -2 -15 -20 0 -102 -136 -224 -251 -224 -61
0 -132 22 -176 55 -40 32 -89 103 -98 147 -12 54 -31 63 -124 61 -57 -1 -86
-5 -92 -14 -12 -21 -20 -5 -28 53 l-7 53 -7 -79 c-4 -43 -7 -108 -7 -143 0
-34 -4 -63 -9 -63 -8 0 -21 94 -21 156 0 25 -4 32 -14 28 -8 -3 -17 -1 -20 4
-3 5 -37 7 -74 4 -46 -3 -72 -1 -76 7 -5 8 10 11 51 11 32 0 65 4 73 10 9 6
19 5 29 -3 11 -9 15 -9 18 1 9 25 23 11 24 -25 2 -57 7 -20 14 100 4 59 10
107 15 107 4 0 10 -24 14 -52 15 -125 19 -140 27 -127 6 11 11 11 21 1 15 -15
130 -16 146 0 9 9 13 7 18 -5 10 -28 24 -19 24 16 0 79 87 190 174 221 55 20
141 18 194 -5z"/>
<path d="M1393 1608 c-59 -28 -99 -78 -119 -144 -33 -114 26 -235 135 -281 22
-10 60 -13 112 -11 42 2 76 5 73 7 -2 2 14 16 35 31 74 54 107 128 98 218 -7
69 -43 124 -111 170 -43 28 -56 32 -115 32 -45 -1 -79 -7 -108 -22z m141 -14
c23 -9 20 -21 -15 -65 l-31 -39 -24 46 c-13 25 -24 47 -24 49 0 11 71 18 94 9z
m127 -91 c22 -37 30 -75 21 -91 -5 -6 -36 -15 -70 -18 -58 -6 -62 -6 -62 14 0
12 -7 25 -16 30 -14 8 -12 16 16 71 l31 62 32 -20 c18 -11 39 -32 48 -48z
m-217 4 c27 -53 27 -54 9 -83 -22 -34 -32 -37 -96 -29 l-49 7 5 45 c3 33 13
54 38 79 18 19 40 34 49 34 9 0 28 -23 44 -53z m86 -112 c0 -15 -7 -26 -20
-30 -41 -13 -70 43 -33 64 25 13 53 -5 53 -34z m-110 -41 c0 -11 -45 -94 -51
-94 -15 0 -59 62 -59 83 0 20 4 22 55 19 30 -2 55 -6 55 -8z m250 -49 c-12
-19 -28 -35 -36 -35 -7 0 -23 18 -34 40 -23 45 -21 47 45 52 49 4 54 -9 25
-57z m-103 -9 c35 -57 32 -68 -24 -87 -39 -12 -85 -6 -119 16 l-22 14 29 54
c27 51 31 54 67 54 34 0 40 -4 69 -51z"/>
<path d="M446 2197 c-22 -22 -24 -29 -16 -59 13 -45 88 -115 134 -123 71 -14
113 50 69 104 -24 28 -51 14 -32 -16 17 -28 5 -53 -25 -53 -26 0 -89 48 -107
82 -14 26 7 51 37 44 15 -4 24 -1 28 11 8 20 7 21 -32 29 -24 5 -36 1 -56 -19z"/>
<path d="M2519 2151 c-32 -32 -34 -40 -20 -88 10 -34 -1 -53 -31 -53 -25 0
-34 28 -19 53 10 14 10 22 1 31 -15 14 -50 -26 -50 -58 0 -66 70 -88 121 -37
28 28 29 33 23 85 -6 52 -5 56 14 56 22 0 35 -22 26 -45 -4 -8 -3 -23 1 -32 6
-16 8 -16 26 6 25 31 24 63 -4 89 -31 29 -53 28 -88 -7z"/>
<path d="M2661 2041 c-10 -7 -11 -13 -1 -31 6 -12 10 -23 8 -24 -2 -2 -42 -24
-90 -50 -61 -33 -85 -51 -81 -62 3 -7 7 -14 10 -14 6 0 90 46 151 83 l33 19 6
-21 c6 -22 12 -25 37 -15 13 5 11 15 -17 65 -34 63 -35 63 -56 50z"/>
<path d="M292 1986 c-10 -22 -6 -27 59 -72 38 -26 68 -49 66 -50 -1 -2 -38 8
-82 21 -43 14 -80 24 -81 22 0 -1 -6 -11 -12 -23 -10 -19 -2 -24 103 -77 92
-46 114 -53 119 -41 8 21 8 24 -3 24 -13 0 -162 72 -158 76 2 2 43 -10 92 -26
66 -21 92 -26 97 -17 12 19 12 19 -67 71 -42 27 -74 51 -71 53 2 2 37 -13 77
-34 41 -21 77 -39 80 -41 4 -1 9 4 13 13 5 13 -17 28 -102 68 -59 28 -110 53
-113 54 -3 2 -11 -7 -17 -21z"/>
<path d="M2648 1841 c-59 -25 -108 -48 -108 -51 0 -3 4 -10 8 -17 11 -17 233
76 229 96 -4 24 -17 21 -129 -28z"/>
<path d="M2675 1775 c-42 -15 -95 -65 -95 -91 0 -27 48 -66 78 -62 36 4 44 38
9 38 -29 0 -50 21 -42 42 8 20 73 49 115 51 42 2 62 -23 38 -50 -15 -18 -14
-43 2 -43 17 0 50 44 50 67 0 57 -69 78 -155 48z"/>
<path d="M187 1731 c-4 -16 10 -29 82 -72 47 -29 96 -59 108 -67 20 -13 24
-12 30 4 3 10 2 19 -4 21 -35 12 -44 28 -32 61 9 28 15 31 42 29 23 -1 32 3
35 16 3 15 -7 17 -105 17 -59 0 -118 3 -129 6 -16 4 -23 0 -27 -15z m149 -38
c-3 -8 -6 -19 -6 -24 0 -5 -18 1 -40 13 -22 13 -40 25 -40 28 0 3 21 4 46 2
35 -3 44 -7 40 -19z"/>
<path d="M150 1561 c0 -19 6 -21 50 -21 43 0 50 -3 50 -19 0 -45 -10 -52 -61
-45 -44 6 -49 5 -49 -13 0 -18 9 -21 103 -26 56 -4 112 -10 125 -13 18 -5 22
-2 22 15 0 21 -22 27 -87 23 -24 -1 -27 7 -17 46 6 21 12 23 58 21 40 -3 52 0
54 13 2 13 -11 17 -75 22 -43 4 -99 9 -125 12 -44 5 -48 4 -48 -15z"/>
<path d="M2679 1504 c-68 -28 -72 -100 -8 -123 25 -9 34 -8 41 1 12 20 10 26
-14 30 -31 4 -36 43 -8 58 32 17 131 9 144 -13 9 -14 7 -21 -12 -35 -15 -12
-21 -24 -16 -35 6 -16 8 -16 35 0 54 32 51 90 -5 117 -42 20 -109 20 -157 0z"/>
<path d="M225 1381 c-70 -17 -91 -44 -83 -107 3 -25 8 -29 38 -32 19 -2 76 -1
126 3 l92 7 -5 41 c-8 60 -18 75 -61 87 -41 11 -63 11 -107 1z m113 -43 c7 -7
12 -22 12 -35 0 -21 -5 -23 -60 -25 -33 -1 -70 -2 -82 -2 -30 -1 -35 27 -9 53
16 16 34 21 74 21 29 0 58 -5 65 -12z"/>
<path d="M2626 1306 c-12 -79 -12 -95 2 -101 28 -10 32 -4 32 46 0 43 3 50 16
45 9 -3 25 -6 36 -6 19 0 20 -4 15 -45 -6 -43 -5 -45 18 -45 23 0 25 4 25 46
0 38 3 45 16 40 9 -3 23 -6 31 -6 12 0 14 -8 9 -44 -6 -35 -4 -45 10 -50 9 -4
18 -5 19 -4 2 2 7 31 12 65 l10 62 -66 6 c-36 4 -92 10 -123 14 l-58 8 -4 -31z"/>
<path d="M360 1205 c-19 -14 -38 -32 -43 -40 -7 -14 -10 -14 -23 0 -22 22 -80
19 -104 -5 -23 -23 -24 -26 -8 -85 11 -39 16 -45 33 -41 11 3 64 15 118 27 80
18 97 26 97 41 0 19 -15 19 -82 -2 -46 -15 -35 22 17 59 47 34 50 38 37 58 -6
10 -17 7 -42 -12z m-81 -87 c13 -37 15 -34 -25 -42 -29 -6 -32 -4 -37 21 -4
19 -1 32 11 41 25 19 39 14 51 -20z"/>
<path d="M2600 1165 c0 -17 0 -17 83 -40 32 -9 56 -19 54 -21 -2 -3 -40 -8
-83 -12 -69 -6 -79 -9 -79 -26 0 -16 13 -23 65 -37 36 -9 87 -24 115 -33 38
-12 51 -13 57 -3 11 17 1 23 -80 42 -75 18 -82 35 -16 35 17 0 52 3 78 6 78
11 56 32 -74 70 -63 19 -116 34 -117 34 -2 0 -3 -7 -3 -15z"/>
<path d="M345 990 c-99 -87 -114 -117 -55 -112 19 2 67 10 107 18 40 7 82 14
94 14 15 0 19 4 15 16 -3 9 -6 17 -6 20 0 2 -13 1 -29 -2 -25 -5 -32 -2 -45
25 -16 29 -15 31 8 46 16 11 22 22 19 35 -3 11 -8 20 -12 19 -3 0 -46 -36 -96
-79z m48 -61 c-5 -3 -26 -9 -48 -12 l-40 -6 35 29 c32 27 36 28 48 13 6 -9 9
-20 5 -24z"/>
<path d="M2525 970 c-10 -16 -2 -21 97 -65 78 -35 86 -40 76 -58 -7 -15 -6
-23 5 -34 14 -14 19 -9 47 47 25 50 29 65 18 71 -21 13 -29 11 -35 -11 -7 -26
-12 -26 -91 14 -85 43 -109 50 -117 36z"/>
<path d="M429 835 c-52 -36 -98 -66 -103 -68 -5 -2 -5 -10 0 -20 9 -16 14 -15
52 12 l41 30 20 -28 21 -29 -41 -26 c-36 -24 -48 -51 -23 -51 13 0 203 129
204 138 0 20 -32 16 -63 -7 -40 -31 -46 -31 -63 -8 -21 27 -17 35 26 62 38 24
50 43 31 54 -4 3 -51 -24 -102 -59z"/>
<path d="M2474 878 c-7 -11 7 -26 57 -60 38 -26 14 -39 -51 -29 -52 8 -69 3
-70 -21 0 -4 27 -10 60 -14 33 -3 57 -11 54 -16 -17 -27 58 -85 96 -73 23 7
74 85 63 95 -11 10 -194 130 -198 130 -2 0 -7 -5 -11 -12z m144 -113 c21 -15
21 -17 6 -40 -19 -29 -36 -32 -54 -10 -10 12 -10 21 -2 40 13 29 20 30 50 10z"/>
<path d="M2332 707 c-38 -39 -41 -45 -27 -57 14 -11 21 -8 50 20 l35 34 25
-24 25 -24 -30 -31 c-35 -36 -36 -41 -13 -49 10 -4 27 3 45 21 l28 27 21 -20
20 -21 -36 -32 c-33 -29 -35 -33 -20 -48 15 -15 20 -13 62 29 l45 46 -86 86
c-48 47 -90 86 -94 86 -4 0 -27 -20 -50 -43z"/>
<path d="M588 733 c-10 -2 -18 -13 -18 -23 0 -16 7 -19 37 -17 56 3 57 -29 2
-82 -58 -57 -126 -55 -97 3 7 13 6 21 -3 27 -22 14 -26 11 -38 -23 -10 -28 -9
-36 7 -58 35 -47 100 -33 167 35 37 39 49 79 32 115 -12 25 -48 35 -89 23z"/>
<path d="M809 553 l-15 -48 -52 3 c-29 1 -52 1 -52 -2 0 -2 20 -17 43 -32 l44
-27 -19 -49 c-10 -26 -15 -48 -12 -48 3 0 23 13 43 30 l38 29 37 -31 c20 -17
39 -28 42 -26 2 3 -3 25 -11 49 -15 42 -15 44 7 61 13 10 31 20 41 24 9 3 17
10 17 16 0 6 -18 7 -49 3 l-50 -7 -12 44 c-18 62 -24 64 -40 11z m38 -79 c9
-23 -13 -40 -32 -24 -12 10 -13 16 -4 26 15 18 28 18 36 -2z"/>
<path d="M2081 520 l-13 -50 -56 0 -57 0 47 -31 47 -30 -20 -46 c-11 -25 -17
-48 -15 -50 3 -3 23 10 45 27 l40 33 39 -32 c22 -17 42 -31 46 -31 3 0 -4 21
-14 46 -11 25 -20 47 -20 50 0 2 19 16 42 31 l42 28 -54 5 -53 5 -14 48 c-7
26 -15 47 -16 47 -2 0 -9 -22 -16 -50z m39 -85 c0 -9 -7 -18 -16 -22 -18 -7
-39 11 -30 26 11 17 46 13 46 -4z"/>
<path d="M1048 342 c-15 -59 -30 -115 -33 -125 -5 -13 -2 -17 13 -17 16 0 22
11 32 63 20 95 27 99 35 15 8 -80 12 -94 34 -100 9 -2 23 32 46 114 17 65 30
120 27 123 -18 18 -32 -3 -47 -71 -9 -41 -19 -74 -21 -71 -2 2 -9 39 -14 82
-9 68 -20 95 -40 95 -3 0 -17 -49 -32 -108z"/>
<path d="M1812 428 c3 -7 18 -61 34 -120 23 -89 32 -108 47 -108 11 0 17 5 15
13 -3 6 -18 60 -34 120 -23 88 -32 107 -47 107 -11 0 -17 -5 -15 -12z"/>
<path d="M1763 424 c-9 -4 -8 -17 2 -52 8 -25 13 -47 12 -48 -1 0 -16 -4 -34
-7 -34 -7 -35 -6 -48 60 -4 23 -11 30 -21 26 -10 -4 -13 -14 -9 -32 3 -14 7
-35 9 -46 3 -11 12 -53 20 -93 9 -40 16 -75 16 -77 0 -2 8 -1 18 2 17 4 18 8
5 56 -14 55 -9 67 33 67 17 0 23 -8 30 -37 4 -21 8 -42 8 -48 1 -5 9 -11 19
-13 19 -4 22 18 8 64 -5 16 -17 64 -27 107 -9 42 -20 77 -23 76 -3 0 -11 -3
-18 -5z"/>
<path d="M1214 286 c-42 -92 -49 -116 -37 -120 21 -8 20 -9 32 24 9 27 13 30
38 24 41 -10 43 -12 43 -45 0 -22 5 -29 20 -29 18 0 20 5 14 38 -3 20 -9 77
-12 127 -6 80 -9 90 -27 92 -17 3 -29 -17 -71 -111z m53 -34 c-29 -6 -32 5
-11 50 l19 43 5 -45 c4 -38 2 -46 -13 -48z"/>
<path d="M1555 376 c-21 -21 -25 -34 -25 -86 0 -107 46 -169 105 -142 25 12
41 51 31 77 -7 18 -26 20 -26 2 0 -24 -25 -48 -42 -42 -36 14 -52 130 -22 159
21 21 30 20 48 -6 12 -17 18 -20 28 -10 9 9 7 18 -9 39 -27 37 -57 40 -88 9z"/>
<path d="M1351 279 c-1 -61 -3 -116 -4 -122 -1 -6 6 -12 15 -15 15 -3 18 8 20
85 l3 88 14 -87 c11 -70 18 -88 31 -88 13 0 19 17 30 85 7 47 16 85 20 85 6 0
4 -69 -4 -142 -2 -22 2 -28 16 -28 16 0 18 10 18 94 0 51 3 108 6 126 7 30 6
31 -22 28 -28 -3 -30 -6 -45 -88 -17 -90 -20 -89 -36 25 -7 55 -10 60 -34 63
l-27 3 -1 -112z"/>
</g>
</svg>
